Coordinates
version=1
nRows=24
nColumns=24
inDegrees=yes

Units are S.I. units (second, meters, Newtons, ...)
Angles are in degrees.

endheader
time	pelvis_tilt	pelvis_list	pelvis_rotation	pelvis_tx	pelvis_ty	pelvis_tz	hip_flexion_r	hip_adduction_r	hip_rotation_r	knee_angle_r	ankle_angle_r	subtalar_angle_r	mtp_angle_r	hip_flexion_l	hip_adduction_l	hip_rotation_l	knee_angle_l	ankle_angle_l	subtalar_angle_l	mtp_angle_l	lumbar_extension	lumbar_bending	lumbar_rotation
      1.22066667	     -1.05302768	      8.90116956	     -4.89446854	      0.16006244	      1.00436612	      0.31179958	     16.36732630	    -11.58232333	      0.22806553	    -68.34867193	     -9.02435884	     -5.81864237	     10.53942530	      8.86938479	     14.42924665	      5.32832207	    -12.88826099	      3.78628030	    -18.65381114	     -2.19983166	    -12.05657267	     -3.82432292	     -0.02891469
      1.22483333	     -1.05921358	      8.70818857	     -4.93863767	      0.16505139	      1.00525538	      0.31177234	     16.92276183	    -11.28692983	      0.25878309	    -68.12055053	     -8.06654478	     -6.11994478	     10.51727302	      8.34306773	     14.24223165	      5.40491113	    -12.48964694	      3.79919256	    -18.63620714	     -2.20986489	    -12.09305664	     -3.54580643	     -0.15884028
      1.22900000	     -1.01885600	      8.48966593	     -4.96948131	      0.17008914	      1.00623578	      0.31172838	     17.38600371	    -10.97287575	      0.25460116	    -67.79348014	     -7.14962382	     -6.34763869	     10.44402361	      7.73350237	     14.03689525	      5.55208365	    -12.03676574	      3.80096230	    -18.68157672	     -2.23593986	    -12.16064549	     -3.22420588	     -0.47511509
      1.23316667	     -0.99876868	      8.28986052	     -4.99269315	      0.17510481	      1.00714662	      0.31167948	     17.86529755	    -10.67529056	      0.24317847	    -67.41902481	     -6.25056666	     -6.63224471	     10.34078725	      7.15768777	     13.84843637	      5.68689429	    -11.59913161	      3.77760572	    -18.72577026	     -2.27331283	    -12.21598691	     -2.92124688	     -0.72450402
      1.23733333	     -1.01872705	      8.08362764	     -5.00773704	      0.18008528	      1.00796107	      0.31162793	     18.37654284	    -10.35912863	      0.23325733	    -66.99043513	     -5.37541020	     -6.91871426	     10.24965631	      6.64304078	     13.64777301	      5.80214111	    -11.19609999	      3.77677339	    -18.73603330	     -2.30657941	    -12.24095881	     -2.61724935	     -0.91674113
      1.24150000	     -0.98410960	      7.86743231	     -5.01938116	      0.18509815	      1.00886073	      0.31158617	     18.79663443	    -10.03897855	      0.20028050	    -66.47776645	     -4.54779113	     -7.21319885	     10.14630945	      6.05603022	     13.43923432	      5.92540763	    -10.76941929	      3.77651714	    -18.74126925	     -2.34384284	    -12.31771062	     -2.31205218	     -1.14189798
      1.24566667	     -0.98420679	      7.67517376	     -5.00121426	      0.19011205	      1.00964798	      0.31150212	     19.24067167	     -9.75183205	      0.13871683	    -65.92233057	     -3.72199919	     -7.53641361	      9.88627243	      5.50959286	     13.25673662	      6.08510647	    -10.34672151	      3.72995207	    -18.80391180	     -2.43319273	    -12.34171827	     -2.01717190	     -1.47100748
      1.24983333	     -0.97377179	      7.43981917	     -4.99981547	      0.19513645	      1.01045758	      0.31145082	     19.64367379	     -9.40508893	      0.09022532	    -65.28035043	     -2.96142765	     -7.81888856	      9.74351749	      4.95871530	     13.02280055	      6.19163877	     -9.94544976	      3.76813283	    -18.78143909	     -2.48183091	    -12.39031754	     -1.67925127	     -1.61688283
      1.25400000	     -0.94730244	      7.22947965	     -4.97132563	      0.20014723	      1.01124098	      0.31138649	     20.01189658	     -9.09404484	      0.01571693	    -64.59016681	     -2.19809104	     -8.15395905	      9.46807955	      4.39341898	     12.81768330	      6.33303481	     -9.54465389	      3.74798941	    -18.78968727	     -2.57308044	    -12.46198617	     -1.38387135	     -1.91959652
      1.25816667	     -0.94994918	      6.98714472	     -4.94853246	      0.20516483	      1.01196523	      0.31133311	     20.38560204	     -8.73590626	     -0.04837840	    -63.82526383	     -1.48690260	     -8.42403342	      9.32345627	      3.87157494	     12.57269808	      6.43472900	     -9.17484586	      3.79732532	    -18.76657200	     -2.62086173	    -12.49307039	     -1.04998345	     -2.06376757
      1.26233333	     -0.92908243	      6.77962079	     -4.90261801	      0.21018039	      1.01266276	      0.31124932	     20.72138457	     -8.42789648	     -0.13318340	    -63.02177845	     -0.77885897	     -8.77749363	      8.97755086	      3.32124518	     12.36828187	      6.57968765	     -8.78937812	      3.78712089	    -18.76405274	     -2.73175422	    -12.56166946	     -0.73594314	     -2.39705584
      1.26650000	     -0.94120886	      6.54068147	     -4.86521238	      0.21522110	      1.01330084	      0.31118399	     21.06483328	     -8.07493759	     -0.20555303	    -62.14219410	     -0.13941650	     -9.03569969	      8.79859883	      2.81224701	     12.12399675	      6.68905645	     -8.42407183	      3.85766466	    -18.73195680	     -2.78778247	    -12.57888339	     -0.39195088	     -2.53643590
      1.27066667	     -0.92588625	      6.31414751	     -4.81127279	      0.22024973	      1.01392186	      0.31111996	     21.35995309	     -7.74058691	     -0.29046144	    -61.21382643	      0.48787093	     -9.34328277	      8.59808882	      2.28254707	     11.89299100	      6.80215907	     -8.07180894	      3.90475528	    -18.69161160	     -2.84925959	    -12.63446752	     -0.06927252	     -2.76554782
      1.27483333	     -0.93596262	      6.11310509	     -4.72401567	      0.22527338	      1.01444502	      0.31100415	     21.66851980	     -7.44222282	     -0.39301169	    -60.25762894	      1.19653677	     -9.58681919	      4.88377427	      1.78156054	     11.69561936	      7.03173812	     -7.72904964	      3.93346858	    -18.82123949	     -3.95584053	    -12.66428163	      0.22038589	     -3.02724488
      1.27900000	     -0.94014794	      5.89035334	     -4.67385310	      0.23033236	      1.01495500	      0.31096304	     21.94847687	     -7.10416461	     -0.45630527	    -59.22075181	      1.73203279	     -9.84805978	      4.85374101	      1.29282289	     11.45925755	      7.05888505	     -7.41072577	      4.00526688	    -18.66604725	     -3.95882887	    -12.69146771	      0.53570590	     -3.20289256
      1.28316667	     -0.93701125	      5.67721109	     -4.59394680	      0.23537534	      1.01542860	      0.31090062	     22.19854390	     -6.78414068	     -0.53652527	    -58.13477013	      2.24868730	    -10.14222784	      4.80073500	      0.80379725	     11.23582846	      7.15633136	     -7.11496524	      4.09398153	    -18.57049291	     -3.96687680	    -12.73289611	      0.83979868	     -3.44128594
      1.28733333	     -0.94334459	      5.47591963	     -4.50924204	      0.24042956	      1.01582377	      0.31082676	     22.44499426	     -6.48066442	     -0.61686606	    -57.00808935	      2.73121727	    -10.40828960	      4.73451722	      0.32957217	     11.02511610	      7.25780228	     -6.82581906	      4.18197726	    -18.50359928	     -3.97857427	    -12.75591139	      1.13342306	     -3.66735923
      1.29150000	     -0.95928518	      5.26483274	     -4.41022096	      0.24547509	      1.01616572	      0.31074016	     22.67742758	     -6.17127562	     -0.70581656	    -55.82683865	      3.20031973	    -10.64201648	      4.68277747	     -0.11213240	     10.80310306	      7.35014735	     -6.58543103	      4.26471843	    -18.45228986	     -3.98861761	    -12.77918028	      1.42805800	     -3.83492613
      1.29566667	     -0.97307842	      5.07661052	     -4.31100554	      0.25053608	      1.01645507	      0.31066818	     22.89568699	     -5.88628050	     -0.78299147	    -54.60732401	      3.61282036	    -10.88862265	      4.62401708	     -0.56191121	     10.60299788	      7.45958680	     -6.32829110	      4.35516376	    -18.38821019	     -3.99985344	    -12.79641295	      1.70250116	     -4.03745969
      1.29983333	     -0.96298435	      4.90896212	     -4.21812125	      0.25561324	      1.01671655	      0.31060918	     23.07786774	     -5.62576923	     -0.84842334	    -53.34973177	      3.92830291	    -11.16616223	      4.51383708	     -1.04759907	     10.42521681	      7.58657946	     -6.04538143	      4.46220338	    -18.31904990	     -4.02238238	    -12.83063241	      1.96349561	     -4.34879466
      1.30400000	     -0.98987605	      4.73573099	     -4.10377390	      0.26067370	      1.01687671	      0.31052185	     23.27848407	     -5.36656088	     -0.92991858	    -52.05053258	      4.28948157	    -11.34941183	      4.43723385	     -1.45765452	     10.24043263	      7.68958760	     -5.83897717	      4.54762616	    -18.27694927	     -4.03856505	    -12.84224280	      2.21935846	     -4.51493066
      1.30816667	     -0.99007687	      4.58614059	     -4.00145783	      0.26575403	      1.01700486	      0.31047219	     23.44122499	     -5.13018309	     -0.99091744	    -50.71693924	      4.54235905	    -11.59650327	      4.30482835	     -1.91405378	     10.07940013	      7.82109981	     -5.59142503	      4.65282204	    -18.22322536	     -4.06609132	    -12.86189150	      2.44983113	     -4.79840109
      1.31233333	     -1.01108506	      4.45090286	     -3.89209145	      0.27081925	      1.01704388	      0.31041584	     23.61382763	     -4.91105616	     -1.04633746	    -49.35309559	      4.80022412	    -11.79462361	      4.15354247	     -2.32882317	      9.93323970	      7.95113793	     -5.38032941	      4.74042207	    -18.18790767	     -4.09842553	    -12.86462811	      2.66221633	     -5.03164374
      1.31650000	     -1.06122019	      4.31684104	     -3.77235212	      0.27588518	      1.01699620	      0.31034139	     23.79902861	     -4.70026193	     -1.11247874	    -47.95285520	      5.06447819	    -11.90838702	      4.06838445	     -2.68770270	      9.78839929	      8.06257401	     -5.22228402	      4.82556142	    -18.16374032	     -4.11544361	    -12.83975368	      2.87003411	     -5.15902453
